<svg xmlns="http://www.w3.org/2000/svg" xmlns:xlink="http://www.w3.org/1999/xlink" contentStyleType="text/css" height="1008px" preserveAspectRatio="none" style="width:603px;height:1008px;background:#FFFFFF;" version="1.1" viewBox="0 0 603 1008" width="603px" zoomAndPan="magnify"><defs/><g><!--cluster Biblioteca--><g id="cluster_Biblioteca"><path d="M8.5,6 L88.1406,6 A3.75,3.75 0 0 1 90.6406,8.5 L97.6406,28.2969 L593.5,28.2969 A2.5,2.5 0 0 1 596,30.7969 L596,999 A2.5,2.5 0 0 1 593.5,1001.5 L8.5,1001.5 A2.5,2.5 0 0 1 6,999 L6,8.5 A2.5,2.5 0 0 1 8.5,6 " fill="none" style="stroke:#000000;stroke-width:1.5;"/><line style="stroke:#000000;stroke-width:1.5;" x1="6" x2="97.6406" y1="28.2969" y2="28.2969"/><text fill="#000000" font-family="sans-serif" font-size="14" font-weight="bold" lengthAdjust="spacing" textLength="78.6406" x="10" y="20.9951">Biblioteca</text></g><!--class Author--><g id="elem_Author"><rect codeLine="2" fill="#F1F1F1" height="113.1875" id="Author" rx="2.5" ry="2.5" style="stroke:#181818;stroke-width:0.5;" width="174.709" x="213.65" y="872.31"/><ellipse cx="273.1876" cy="888.31" fill="#ADD1B2" rx="11" ry="11" style="stroke:#181818;stroke-width:1.0;"/><path d="M276.1563,893.9506 Q275.5782,894.2475 274.9376,894.3881 Q274.297,894.5444 273.5938,894.5444 Q271.0938,894.5444 269.7657,892.9038 Q268.4532,891.2475 268.4532,888.1225 Q268.4532,884.9975 269.7657,883.3413 Q271.0938,881.685 273.5938,881.685 Q274.297,881.685 274.9376,881.8413 Q275.5938,881.9975 276.1563,882.2944 L276.1563,885.0131 Q275.5313,884.435 274.9376,884.1694 Q274.3438,883.8881 273.7188,883.8881 Q272.3751,883.8881 271.6876,884.9663 Q271.0001,886.0288 271.0001,888.1225 Q271.0001,890.2163 271.6876,891.2944 Q272.3751,892.3569 273.7188,892.3569 Q274.3438,892.3569 274.9376,892.0913 Q275.5313,891.81 276.1563,891.2319 L276.1563,893.9506 Z " fill="#000000"/><text fill="#000000" font-family="sans-serif" font-size="14" lengthAdjust="spacing" textLength="47.1338" x="293.6876" y="893.1567">Author</text><line style="stroke:#181818;stroke-width:0.5;" x1="214.65" x2="387.359" y1="904.31" y2="904.31"/><rect fill="none" height="6" style="stroke:#C82930;stroke-width:1.0;" width="6" x="221.65" y="914.9584"/><text fill="#000000" font-family="sans-serif" font-size="14" lengthAdjust="spacing" textLength="90.6514" x="233.65" y="921.3051">name: String</text><line style="stroke:#181818;stroke-width:0.5;" x1="214.65" x2="387.359" y1="928.6069" y2="928.6069"/><ellipse cx="224.65" cy="942.2553" fill="#84BE84" rx="3" ry="3" style="stroke:#038048;stroke-width:1.0;"/><text fill="#000000" font-family="sans-serif" font-size="14" lengthAdjust="spacing" textLength="148.709" x="233.65" y="945.602">Author(name: String)</text><ellipse cx="224.65" cy="958.5522" fill="#84BE84" rx="3" ry="3" style="stroke:#038048;stroke-width:1.0;"/><text fill="#000000" font-family="sans-serif" font-size="14" lengthAdjust="spacing" textLength="126.1641" x="233.65" y="961.8989">getName(): String</text><ellipse cx="224.65" cy="974.8491" fill="#84BE84" rx="3" ry="3" style="stroke:#038048;stroke-width:1.0;"/><text fill="#000000" font-family="sans-serif" font-size="14" lengthAdjust="spacing" textLength="117.708" x="233.65" y="978.1957">toString(): String</text></g><!--class Book--><g id="elem_Book"><rect codeLine="9" fill="#F1F1F1" height="210.9688" id="Book" rx="2.5" ry="2.5" style="stroke:#181818;stroke-width:0.5;" width="558.9434" x="21.53" y="584.34"/><ellipse cx="279.3303" cy="600.34" fill="#ADD1B2" rx="11" ry="11" style="stroke:#181818;stroke-width:1.0;"/><path d="M282.299,605.9806 Q281.7209,606.2775 281.0803,606.4181 Q280.4397,606.5744 279.7365,606.5744 Q277.2365,606.5744 275.9084,604.9337 Q274.5959,603.2775 274.5959,600.1525 Q274.5959,597.0275 275.9084,595.3712 Q277.2365,593.715 279.7365,593.715 Q280.4397,593.715 281.0803,593.8712 Q281.7365,594.0275 282.299,594.3244 L282.299,597.0431 Q281.674,596.465 281.0803,596.1994 Q280.4865,595.9181 279.8615,595.9181 Q278.5178,595.9181 277.8303,596.9962 Q277.1428,598.0587 277.1428,600.1525 Q277.1428,602.2462 277.8303,603.3244 Q278.5178,604.3869 279.8615,604.3869 Q280.4865,604.3869 281.0803,604.1212 Q281.674,603.84 282.299,603.2619 L282.299,605.9806 Z " fill="#000000"/><text fill="#000000" font-family="sans-serif" font-size="14" lengthAdjust="spacing" textLength="34.8428" x="299.8303" y="605.1867">Book</text><line style="stroke:#181818;stroke-width:0.5;" x1="22.53" x2="579.4734" y1="616.34" y2="616.34"/><rect fill="none" height="6" style="stroke:#C82930;stroke-width:1.0;" width="6" x="29.53" y="626.9884"/><text fill="#000000" font-family="sans-serif" font-size="14" lengthAdjust="spacing" textLength="78.3193" x="41.53" y="633.3351">title: String</text><rect fill="none" height="6" style="stroke:#C82930;stroke-width:1.0;" width="6" x="29.53" y="643.2853"/><text fill="#000000" font-family="sans-serif" font-size="14" lengthAdjust="spacing" textLength="157.6641" x="41.53" y="649.632">authors: List&lt;Author&gt;</text><rect fill="none" height="6" style="stroke:#C82930;stroke-width:1.0;" width="6" x="29.53" y="659.5822"/><text fill="#000000" font-family="sans-serif" font-size="14" lengthAdjust="spacing" textLength="58.6523" x="41.53" y="665.9289">year: int</text><rect fill="none" height="6" style="stroke:#C82930;stroke-width:1.0;" width="6" x="29.53" y="675.8791"/><text fill="#000000" font-family="sans-serif" font-size="14" lengthAdjust="spacing" textLength="165.8398" x="41.53" y="682.2257">keywords: List&lt;String&gt;</text><line style="stroke:#181818;stroke-width:0.5;" x1="22.53" x2="579.4734" y1="689.5275" y2="689.5275"/><ellipse cx="32.53" cy="703.1759" fill="#84BE84" rx="3" ry="3" style="stroke:#038048;stroke-width:1.0;"/><text fill="#000000" font-family="sans-serif" font-size="14" lengthAdjust="spacing" textLength="532.9434" x="41.53" y="706.5226">Book(title: String, authors: List&lt;Author&gt;, year: int, keywords: List&lt;String&gt;)</text><ellipse cx="32.53" cy="719.4728" fill="#84BE84" rx="3" ry="3" style="stroke:#038048;stroke-width:1.0;"/><text fill="#000000" font-family="sans-serif" font-size="14" lengthAdjust="spacing" textLength="115.2949" x="41.53" y="722.8195">getTitle(): String</text><ellipse cx="32.53" cy="735.7697" fill="#84BE84" rx="3" ry="3" style="stroke:#038048;stroke-width:1.0;"/><text fill="#000000" font-family="sans-serif" font-size="14" lengthAdjust="spacing" textLength="192.5752" x="41.53" y="739.1164">getAuthors(): List&lt;Author&gt;</text><ellipse cx="32.53" cy="752.0666" fill="#84BE84" rx="3" ry="3" style="stroke:#038048;stroke-width:1.0;"/><text fill="#000000" font-family="sans-serif" font-size="14" lengthAdjust="spacing" textLength="92.832" x="41.53" y="755.4132">getYear(): int</text><ellipse cx="32.53" cy="768.3634" fill="#84BE84" rx="3" ry="3" style="stroke:#038048;stroke-width:1.0;"/><text fill="#000000" font-family="sans-serif" font-size="14" lengthAdjust="spacing" textLength="200.8262" x="41.53" y="771.7101">getKeywords(): List&lt;String&gt;</text><ellipse cx="32.53" cy="784.6603" fill="#84BE84" rx="3" ry="3" style="stroke:#038048;stroke-width:1.0;"/><text fill="#000000" font-family="sans-serif" font-size="14" lengthAdjust="spacing" textLength="117.708" x="41.53" y="788.007">toString(): String</text></g><!--class LibraryManager--><g id="elem_LibraryManager"><rect codeLine="22" fill="#F1F1F1" height="210.9688" id="LibraryManager" rx="2.5" ry="2.5" style="stroke:#181818;stroke-width:0.5;" width="379.0898" x="111.46" y="296.37"/><ellipse cx="241.5957" cy="312.37" fill="#ADD1B2" rx="11" ry="11" style="stroke:#181818;stroke-width:1.0;"/><path d="M244.5645,318.0106 Q243.9864,318.3075 243.3457,318.4481 Q242.7051,318.6044 242.002,318.6044 Q239.502,318.6044 238.1739,316.9638 Q236.8614,315.3075 236.8614,312.1825 Q236.8614,309.0575 238.1739,307.4013 Q239.502,305.745 242.002,305.745 Q242.7051,305.745 243.3457,305.9013 Q244.002,306.0575 244.5645,306.3544 L244.5645,309.0731 Q243.9395,308.495 243.3457,308.2294 Q242.752,307.9481 242.127,307.9481 Q240.7832,307.9481 240.0957,309.0263 Q239.4082,310.0888 239.4082,312.1825 Q239.4082,314.2763 240.0957,315.3544 Q240.7832,316.4169 242.127,316.4169 Q242.752,316.4169 243.3457,316.1513 Q243.9395,315.87 244.5645,315.2919 L244.5645,318.0106 Z " fill="#000000"/><text fill="#000000" font-family="sans-serif" font-size="14" lengthAdjust="spacing" textLength="110.3184" x="262.0957" y="317.2167">LibraryManager</text><line style="stroke:#181818;stroke-width:0.5;" x1="112.46" x2="489.5498" y1="328.37" y2="328.37"/><rect fill="none" height="6" style="stroke:#C82930;stroke-width:1.0;" width="6" x="119.46" y="339.0184"/><text fill="#000000" font-family="sans-serif" font-size="14" lengthAdjust="spacing" textLength="133.3623" x="131.46" y="345.3651">books: List&lt;Book&gt;</text><line style="stroke:#181818;stroke-width:0.5;" x1="112.46" x2="489.5498" y1="352.6669" y2="352.6669"/><ellipse cx="122.46" cy="366.3153" fill="#84BE84" rx="3" ry="3" style="stroke:#038048;stroke-width:1.0;"/><text fill="#000000" font-family="sans-serif" font-size="14" lengthAdjust="spacing" textLength="121.2422" x="131.46" y="369.662">LibraryManager()</text><ellipse cx="122.46" cy="382.6122" fill="#84BE84" rx="3" ry="3" style="stroke:#038048;stroke-width:1.0;"/><text fill="#000000" font-family="sans-serif" font-size="14" lengthAdjust="spacing" textLength="150.2539" x="131.46" y="385.9589">addBook(book: Book)</text><ellipse cx="122.46" cy="398.9091" fill="#84BE84" rx="3" ry="3" style="stroke:#038048;stroke-width:1.0;"/><text fill="#000000" font-family="sans-serif" font-size="14" lengthAdjust="spacing" textLength="177.5566" x="131.46" y="402.2557">removeBook(title: String)</text><ellipse cx="122.46" cy="415.2059" fill="#84BE84" rx="3" ry="3" style="stroke:#038048;stroke-width:1.0;"/><text fill="#000000" font-family="sans-serif" font-size="14" lengthAdjust="spacing" textLength="267.6543" x="131.46" y="418.5526">editBook(title: String, newBook: Book)</text><ellipse cx="122.46" cy="431.5028" fill="#84BE84" rx="3" ry="3" style="stroke:#038048;stroke-width:1.0;"/><text fill="#000000" font-family="sans-serif" font-size="14" lengthAdjust="spacing" textLength="276.3223" x="131.46" y="434.8495">searchByTitle(title: String): List&lt;Book&gt;</text><ellipse cx="122.46" cy="447.7997" fill="#84BE84" rx="3" ry="3" style="stroke:#038048;stroke-width:1.0;"/><text fill="#000000" font-family="sans-serif" font-size="14" lengthAdjust="spacing" textLength="353.0898" x="131.46" y="451.1464">searchByAuthor(authorName: String): List&lt;Book&gt;</text><ellipse cx="122.46" cy="464.0966" fill="#84BE84" rx="3" ry="3" style="stroke:#038048;stroke-width:1.0;"/><text fill="#000000" font-family="sans-serif" font-size="14" lengthAdjust="spacing" textLength="257.7217" x="131.46" y="467.4432">searchByYear(year: int): List&lt;Book&gt;</text><ellipse cx="122.46" cy="480.3934" fill="#84BE84" rx="3" ry="3" style="stroke:#038048;stroke-width:1.0;"/><text fill="#000000" font-family="sans-serif" font-size="14" lengthAdjust="spacing" textLength="338.9189" x="131.46" y="483.7401">searchByKeyword(keyword: String): List&lt;Book&gt;</text><ellipse cx="122.46" cy="496.6903" fill="#84BE84" rx="3" ry="3" style="stroke:#038048;stroke-width:1.0;"/><text fill="#000000" font-family="sans-serif" font-size="14" lengthAdjust="spacing" textLength="73.623" x="131.46" y="500.037">listBooks()</text></g><!--class App--><g id="elem_App"><rect codeLine="35" fill="#F1F1F1" height="178.375" id="App" rx="2.5" ry="2.5" style="stroke:#181818;stroke-width:0.5;" width="251.8936" x="175.05" y="41"/><ellipse cx="283.0715" cy="57" fill="#ADD1B2" rx="11" ry="11" style="stroke:#181818;stroke-width:1.0;"/><path d="M286.0402,62.6406 Q285.4621,62.9375 284.8215,63.0781 Q284.1809,63.2344 283.4777,63.2344 Q280.9777,63.2344 279.6496,61.5938 Q278.3371,59.9375 278.3371,56.8125 Q278.3371,53.6875 279.6496,52.0313 Q280.9777,50.375 283.4777,50.375 Q284.1809,50.375 284.8215,50.5313 Q285.4777,50.6875 286.0402,50.9844 L286.0402,53.7031 Q285.4152,53.125 284.8215,52.8594 Q284.2277,52.5781 283.6027,52.5781 Q282.259,52.5781 281.5715,53.6563 Q280.884,54.7188 280.884,56.8125 Q280.884,58.9063 281.5715,59.9844 Q282.259,61.0469 283.6027,61.0469 Q284.2277,61.0469 284.8215,60.7813 Q285.4152,60.5 286.0402,59.9219 L286.0402,62.6406 Z " fill="#000000"/><text fill="#000000" font-family="sans-serif" font-size="14" lengthAdjust="spacing" textLength="27.3506" x="303.5715" y="61.8467">App</text><line style="stroke:#181818;stroke-width:0.5;" x1="176.05" x2="425.9436" y1="73" y2="73"/><rect fill="none" height="6" style="stroke:#C82930;stroke-width:1.0;" width="6" x="183.05" y="83.6484"/><text fill="#000000" font-family="sans-serif" font-size="14" lengthAdjust="spacing" textLength="225.8936" x="195.05" y="89.9951">libraryManager: LibraryManager</text><rect fill="none" height="6" style="stroke:#C82930;stroke-width:1.0;" width="6" x="183.05" y="99.9453"/><text fill="#000000" font-family="sans-serif" font-size="14" lengthAdjust="spacing" textLength="122.1309" x="195.05" y="106.292">scanner: Scanner</text><line style="stroke:#181818;stroke-width:0.5;" x1="176.05" x2="425.9436" y1="113.5938" y2="113.5938"/><ellipse cx="186.05" cy="127.2422" fill="#84BE84" rx="3" ry="3" style="stroke:#038048;stroke-width:1.0;"/><text fill="#000000" font-family="sans-serif" font-size="14" lengthAdjust="spacing" textLength="138.291" x="195.05" y="130.5889">main(args: String[])</text><rect fill="#F24D5C" height="6" style="stroke:#C82930;stroke-width:1.0;" width="6" x="183.05" y="140.5391"/><text fill="#000000" font-family="sans-serif" font-size="14" lengthAdjust="spacing" textLength="134.5244" x="195.05" y="146.8857">createBook(): Book</text><rect fill="#F24D5C" height="6" style="stroke:#C82930;stroke-width:1.0;" width="6" x="183.05" y="156.8359"/><text fill="#000000" font-family="sans-serif" font-size="14" lengthAdjust="spacing" textLength="72.1191" x="195.05" y="163.1826">addBook()</text><rect fill="#F24D5C" height="6" style="stroke:#C82930;stroke-width:1.0;" width="6" x="183.05" y="173.1328"/><text fill="#000000" font-family="sans-serif" font-size="14" lengthAdjust="spacing" textLength="99.2373" x="195.05" y="179.4795">removeBook()</text><rect fill="#F24D5C" height="6" style="stroke:#C82930;stroke-width:1.0;" width="6" x="183.05" y="189.4297"/><text fill="#000000" font-family="sans-serif" font-size="14" lengthAdjust="spacing" textLength="72.6455" x="195.05" y="195.7764">editBook()</text><rect fill="#F24D5C" height="6" style="stroke:#C82930;stroke-width:1.0;" width="6" x="183.05" y="205.7266"/><text fill="#000000" font-family="sans-serif" font-size="14" lengthAdjust="spacing" textLength="92.5791" x="195.05" y="212.0732">searchBook()</text></g><!--link App to LibraryManager--><g id="link_App_LibraryManager"><path codeLine="46" d="M301,219.86 C301,244.27 301,264.97 301,290.19 " fill="none" id="App-to-LibraryManager" style="stroke:#181818;stroke-width:1.0;stroke-dasharray:7.0,7.0;"/><polygon fill="#181818" points="301,296.19,305,287.19,301,291.19,297,287.19,301,296.19" style="stroke:#181818;stroke-width:1.0;"/><text fill="#000000" font-family="sans-serif" font-size="13" lengthAdjust="spacing" textLength="29.7832" x="302" y="262.4369">uses</text></g><!--reverse link LibraryManager to Book--><g id="link_LibraryManager_Book"><path codeLine="47" d="M301,519.72 C301,544.59 301,559.11 301,583.98 " fill="none" id="LibraryManager-backto-Book" style="stroke:#181818;stroke-width:1.0;"/><polygon fill="#181818" points="301,507.72,297,513.72,301,519.72,305,513.72,301,507.72" style="stroke:#181818;stroke-width:1.0;"/><text fill="#000000" font-family="sans-serif" font-size="13" lengthAdjust="spacing" textLength="55.0278" x="302" y="550.4069">contains</text></g><!--reverse link Book to Author--><g id="link_Book_Author"><path codeLine="48" d="M301,807.5 C301,833.8 301,849.02 301,871.89 " fill="none" id="Book-backto-Author" style="stroke:#181818;stroke-width:1.0;"/><polygon fill="#181818" points="301,795.5,297,801.5,301,807.5,305,801.5,301,795.5" style="stroke:#181818;stroke-width:1.0;"/><text fill="#000000" font-family="sans-serif" font-size="13" lengthAdjust="spacing" textLength="22.9785" x="302" y="838.3769">has</text></g><!--SRC=[VLJBRi8m4BpdAtnCMi87M1KIkHQuq4jLzR0aLh08Dh9DKLJnx_LZ7VAWoIdUsPtTdN5oWV84DIC5FpHS6bO2-KtA1hGcwwivIcMFn3uv4N1cbEoDugBseLVCIFj8Xb3DpCw6qsnKOcGuze1xWWqBAKzTEyDDC-oN4_3zD2KRhirRwBv2h6MWAE72uFd4sfjKLKmEF2kSmdLA1nqMpyaN3zx5FvIzZJySusHb2mGsxQ39w3xXqtPnQ9pV1z-nNrSsN69EoWq_A53j5eGrz-7XmUuTntSQHAfXUXfNWghoIhaowaMBY69d-SEcCaQSLTmy4rcmMp4XqtRvybYqGRuXtvDXOphUlk3Rhdy7Pugyq9sdSvceVegkpv4tDk3Ergc71UlBfTEz6UXBHtfZaYv128VkmmkIdu6B55IjumHVtnbMb8g12IvaGTBueQ1nCR5dLmnr3iK0xXr2TWit_tAv6bybIgwQwMGK9IzvJi87J4afXR53wyIV0uG_4qgEe9Fx7m00]--></g></svg>